<?xml version="1.0" encoding="UTF-8"?><svg xmlns="http://www.w3.org/2000/svg" viewBox="0 0 125.62 114.21"><defs><style>.d{fill:none;stroke:#478fcd;stroke-miterlimit:10;stroke-width:4px;}.e{fill:#478fcd;}</style></defs><g id="a"/><g id="b"><g id="c"><path class="d" d="M0,100.21c7.85,0,7.85,12,15.7,12s7.85-12,15.7-12,7.85,12,15.7,12,7.85-12,15.7-12,7.85,12,15.7,12,7.85-12,15.7-12,7.85,12,15.71,12,7.85-12,15.71-12"/><path class="d" d="M0,82.23c7.85,0,7.85,12,15.7,12s7.85-12,15.7-12,7.85,12,15.7,12,7.85-12,15.7-12,7.85,12,15.7,12,7.85-12,15.7-12,7.85,12,15.71,12,7.85-12,15.71-12"/><path class="d" d="M0,64.47c7.85,0,7.85,12,15.7,12s7.85-12,15.7-12,7.85,12,15.7,12,7.85-12,15.7-12,7.85,12,15.7,12,7.85-12,15.7-12,7.85,12,15.71,12,7.85-12,15.71-12"/><g><path class="d" d="M62.79,52.98c-.31-16.06-.62-32.11-.93-48.17"/><path class="e" d="M81.58,31.77c-.92,.61-2.16,.36-2.77-.56L61.88,5.72l-15.94,26.12c-.58,.94-1.81,1.24-2.75,.67-.94-.58-1.23-1.81-.67-2.75L60.1,.96C60.45,.38,61.08,.01,61.77,0c.68-.01,1.33,.32,1.71,.89l18.67,28.1c.22,.33,.33,.7,.33,1.07,.01,.66-.3,1.31-.89,1.71Z"/></g></g></g></svg>