<?xml version="1.0" encoding="UTF-8"?><svg xmlns="http://www.w3.org/2000/svg" viewBox="0 0 125.62 114.25"><defs><style>.d{fill:none;stroke:#478fcd;stroke-miterlimit:10;stroke-width:4px;}.e{fill:#478fcd;}</style></defs><g id="a"/><g id="b"><g id="c"><path class="d" d="M0,100.25c7.85,0,7.85,12,15.7,12s7.85-12,15.7-12,7.85,12,15.7,12,7.85-12,15.7-12,7.85,12,15.7,12,7.85-12,15.7-12,7.85,12,15.71,12,7.85-12,15.71-12"/><path class="d" d="M0,82.27c7.85,0,7.85,12,15.7,12s7.85-12,15.7-12,7.85,12,15.7,12,7.85-12,15.7-12,7.85,12,15.7,12,7.85-12,15.7-12,7.85,12,15.71,12,7.85-12,15.71-12"/><path class="d" d="M0,64.51c7.85,0,7.85,12,15.7,12s7.85-12,15.7-12,7.85,12,15.7,12,7.85-12,15.7-12,7.85,12,15.7,12,7.85-12,15.7-12,7.85,12,15.71,12,7.85-12,15.71-12"/><g><path class="d" d="M62.79,53.02L61.77,.04"/><path class="e" d="M83.14,23.1c-1.03-.63-2.37-.3-3,.73l-17.37,28.47-18.46-27.78c-.67-1-2.02-1.28-3.02-.61-1,.67-1.27,2.03-.61,3.02l20.35,30.63c.41,.62,1.11,.99,1.86,.97,.74-.01,1.43-.41,1.82-1.04l19.15-31.4c.22-.37,.33-.77,.32-1.18-.01-.72-.39-1.42-1.04-1.82Z"/></g></g></g></svg>