<?xml version="1.0" encoding="UTF-8"?><svg xmlns="http://www.w3.org/2000/svg" viewBox="0 0 125.62 51.74"><defs><style>.d{fill:none;stroke:#478fcd;stroke-miterlimit:10;stroke-width:4px;}</style></defs><g id="a"/><g id="b"><g id="c"><path class="d" d="M0,37.74c7.85,0,7.85,12,15.7,12s7.85-12,15.7-12,7.85,12,15.7,12,7.85-12,15.7-12,7.85,12,15.7,12,7.85-12,15.7-12,7.85,12,15.71,12,7.85-12,15.71-12"/><path class="d" d="M0,19.77c7.85,0,7.85,12,15.7,12s7.85-12,15.7-12,7.85,12,15.7,12,7.85-12,15.7-12,7.85,12,15.7,12,7.85-12,15.7-12,7.85,12,15.71,12,7.85-12,15.71-12"/><path class="d" d="M0,2c7.85,0,7.85,12,15.7,12S23.55,2,31.4,2s7.85,12,15.7,12,7.85-12,15.7-12,7.85,12,15.7,12,7.85-12,15.7-12,7.85,12,15.71,12,7.85-12,15.71-12"/></g></g></svg>