<?xml version="1.0" encoding="UTF-8"?><svg id="a" xmlns="http://www.w3.org/2000/svg" viewBox="0 0 125.62 97.49"><defs><style>.b{fill:#fff;}.c{stroke-width:3px;}.c,.d{fill:none;stroke:#27aae1;stroke-miterlimit:10;}.d{stroke-width:2px;}.e{fill:#27aae1;}</style></defs><g><path class="b" d="M0,46.7c7.85,0,7.85,12,15.7,12s7.85-12,15.7-12,7.85,12,15.7,12,7.85-12,15.7-12,7.85,12,15.7,12,7.85-12,15.7-12,7.85,12,15.71,12,7.85-12,15.71-12"/><path class="d" d="M0,46.7c7.85,0,7.85,12,15.7,12s7.85-12,15.7-12,7.85,12,15.7,12,7.85-12,15.7-12,7.85,12,15.7,12,7.85-12,15.7-12,7.85,12,15.71,12,7.85-12,15.71-12"/></g><g><path class="b" d="M0,65.6c7.85,0,7.85,12,15.7,12s7.85-12,15.7-12,7.85,12,15.7,12,7.85-12,15.7-12,7.85,12,15.7,12,7.85-12,15.7-12,7.85,12,15.71,12,7.85-12,15.71-12"/><path class="d" d="M0,65.6c7.85,0,7.85,12,15.7,12s7.85-12,15.7-12,7.85,12,15.7,12,7.85-12,15.7-12,7.85,12,15.7,12,7.85-12,15.7-12,7.85,12,15.71,12,7.85-12,15.71-12"/></g><path class="d" d="M0,84.49c7.85,0,7.85,12,15.7,12s7.85-12,15.7-12,7.85,12,15.7,12,7.85-12,15.7-12,7.85,12,15.7,12,7.85-12,15.7-12,7.85,12,15.71,12,7.85-12,15.71-12"/><g><line class="c" x1="62.81" y1="37.9" x2="62.81" y2="3.68"/><path class="e" d="M76.78,23.39c-.68,.43-1.58,.23-2.01-.45L62.81,4.16l-11.96,18.78c-.43,.68-1.33,.88-2.01,.45-.68-.43-.87-1.34-.45-2.01L61.58,.67c.27-.42,.73-.67,1.23-.67s.96,.25,1.23,.67l13.19,20.7c.15,.24,.23,.51,.23,.78,0,.48-.24,.95-.67,1.23Z"/></g></svg>